PathFileType	4	(X/Y/Z)	C:/Users/opensim2020/Desktop/walking_exp_matlab/subject06_walking15_straight_01.trc																																																																																																																																											
DataRate	CameraRate	NumFrames	NumMarkers	Units	OrigDataRate	OrigDataStartFrame	OrigNumFrames																																																																																																																																							
100	100	7	47	mm	100	892	232																																																																																																																																							
Frame#	Time	LFHD			RFHD			LBHD			RBHD			C7			T10			CLAV			STRN			RBAK			LSHO			LUPA			LELB			LFRM			LWRA			LWRB			LFIN			RSHO			RUPA			RELB			RFRM			RWRA			RWRB			RFIN			LASI			RASI			LPSI			RPSI			LTHI			LKNE			LTIB			LANK			LHEE			LTOE			RTHI			RKNE			RTIB			RANK			RHEE			RTOE			*39			*40			*41			*42			*43			*44			*45			*46		
		X1	Y1	Z1	X2	Y2	Z2	X3	Y3	Z3	X4	Y4	Z4	X5	Y5	Z5	X6	Y6	Z6	X7	Y7	Z7	X8	Y8	Z8	X9	Y9	Z9	X10	Y10	Z10	X11	Y11	Z11	X12	Y12	Z12	X13	Y13	Z13	X14	Y14	Z14	X15	Y15	Z15	X16	Y16	Z16	X17	Y17	Z17	X18	Y18	Z18	X19	Y19	Z19	X20	Y20	Z20	X21	Y21	Z21	X22	Y22	Z22	X23	Y23	Z23	X24	Y24	Z24	X25	Y25	Z25	X26	Y26	Z26	X27	Y27	Z27	X28	Y28	Z28	X29	Y29	Z29	X30	Y30	Z30	X31	Y31	Z31	X32	Y32	Z32	X33	Y33	Z33	X34	Y34	Z34	X35	Y35	Z35	X36	Y36	Z36	X37	Y37	Z37	X38	Y38	Z38	X39	Y39	Z39	X40	Y40	Z40	X41	Y41	Z41	X42	Y42	Z42	X43	Y43	Z43	X44	Y44	Z44	X45	Y45	Z45	X46	Y46	Z46	X47	Y47	Z47
																																																																																																																																														
117	1.16	-63.22945	1673.17737	1350.72839	-57.32612	1667.87488	1482.45483	-194.03145	1613.45569	1358.55396	-187.15504	1613.45288	1488.30005	-187.18924	1459.16138	1416.28711	-221.36688	1132.00952	1427.36377	-74.54668	1384.19629	1419.61267	-33.47883	1209.69519	1414.64636	-260.86948	1291.16492	1492.5481	-130.22289	1413.60266	1256.27405	-117.62121	1211.12463	1183.46582	-110.6124	1098.50818	1171.35815	-52.03683	959.89856	1152.74036	36.80449	867.88812	1196.34265	-20.0055	844.82507	1161.43433	42.66404	780.02893	1160.00146	-126.21159	1416.51501	1579.12463	-186.90538	1224.48962	1665.72461	-191.94514	1102.29456	1679.12915	-195.00827	982.50323	1700.32861	-158.13983	832.86377	1675.85718	-210.78224	845.70135	1714.26306	-187.89313	763.95618	1719.80664	-41.27828	971.297	1325.88843	-49.34373	979.67847	1544.95313	-201.6561	998.02484	1350.5376	-200.38512	999.25385	1518.38696	-104.83823	653.93347	1276.50208	-105.84348	490.72144	1305.26404	-157.42413	238.4931	1321.04346	-178.07994	69.49688	1370.0614	-221.17464	57.60339	1413.76074	-33.81817	40.45607	1380.2616	-29.96319	652.35999	1612.66174	16.52805	534.77777	1593.84644	-108.55444	307.09329	1582.2749	-195.91083	144.35873	1534.75684	-234.20531	132.05681	1483.1731	-73.29343	56.55483	1563.47717	-162.65344	1710.45093	1412.63	NaN	NaN	NaN	NaN	NaN	NaN	NaN	NaN	NaN	NaN	NaN	NaN	NaN	NaN	NaN	NaN	NaN	NaN	NaN	NaN	NaN
118	1.17	-52.80047	1672.7887	1351.07788	-46.97222	1667.38635	1482.80383	-183.54659	1613.56775	1358.47815	-177.10068	1613.43628	1488.24487	-177.18771	1458.91895	1415.91504	-211.64355	1131.78784	1426.52112	-64.65891	1383.96838	1419.58276	-23.67393	1209.4314	1414.29919	-251.13547	1290.78735	1491.43054	-119.90773	1413.83972	1256.0459	-105.65588	1211.72742	1182.77893	-97.13935	1099.26807	1170.26807	-35.39941	961.95361	1151.78516	55.46725	872.18231	1195.81287	-0.69234	847.70355	1160.69446	63.27483	784.36896	1159.32605	-116.88713	1416.07422	1578.92871	-178.9249	1224.36414	1664.98779	-184.68616	1102.19409	1678.38843	-188.96454	982.40991	1699.57874	-153.44473	832.45984	1675.49768	-206.34935	845.76422	1713.4314	-184.6463	763.73572	1718.7417	-32.04029	970.60278	1325.20947	-39.4379	979.67853	1544.27771	-192.23209	997.87714	1350.0293	-190.8078	999.26257	1518.00879	-98.34883	653.41931	1276.38452	-101.58993	490.12552	1304.94836	-155.73622	238.3475	1320.54834	-177.88745	69.5849	1370.19385	-221.05856	57.89085	1413.88635	-33.67474	40.27048	1380.32117	-17.72168	653.16388	1611.479	29.27857	536.20093	1592.21826	-87.00879	303.13022	1582.02148	-165.74509	135.87997	1536.01965	-203.49207	121.07315	1484.30713	-38.78249	54.75726	1564.69666	-152.02196	1710.36938	1412.79248	NaN	NaN	NaN	NaN	NaN	NaN	NaN	NaN	NaN	NaN	NaN	NaN	NaN	NaN	NaN	NaN	NaN	NaN	NaN	NaN	NaN
119	1.18	-41.94881	1672.47229	1351.38208	-36.63274	1666.81982	1483.12061	-173.07082	1613.55334	1358.39197	-166.94087	1613.19751	1488.11157	-167.41138	1458.63928	1415.64111	-201.90907	1131.50354	1425.74939	-54.80353	1383.59253	1419.4353	-13.91852	1209.0061	1413.93982	-241.56721	1290.36292	1490.47034	-109.5832	1413.8844	1255.87561	-94.07723	1212.19727	1181.92017	-83.94666	1099.73547	1169.27332	-19.26228	963.91608	1150.96887	73.74957	876.38422	1195.35425	18.28641	850.5907	1160.12415	83.88694	788.71814	1159.1322	-107.59404	1415.50867	1578.6947	-170.94212	1224.10486	1664.30029	-177.37746	1101.99438	1677.6333	-182.82956	982.2688	1698.86292	-148.55748	831.99957	1675.14551	-201.61397	845.66565	1712.62939	-180.77144	763.35492	1717.92957	-22.81888	969.76825	1324.4873	-29.47124	979.41504	1543.61035	-182.90808	997.61731	1349.63232	-180.74557	999.04919	1517.65247	-91.9451	652.78156	1276.18994	-97.23532	489.48187	1304.61621	-154.0864	238.14838	1320.2937	-177.75613	69.69789	1370.24475	-221.16968	58.17914	1414.16223	-33.52086	40.07428	1380.21692	-5.86987	653.5791	1610.30249	41.66657	537.18243	1590.42139	-65.48657	299.26926	1581.62097	-135.38934	127.29106	1536.79504	-172.32431	110.55831	1485.47803	-4.19468	53.39776	1565.60681	-141.43333	1710.17053	1412.90894	NaN	NaN	NaN	NaN	NaN	NaN	NaN	NaN	NaN	NaN	NaN	NaN	NaN	NaN	NaN	NaN	NaN	NaN	NaN	NaN	NaN
120	1.19	-31.35234	1672.02319	1351.75061	-26.37246	1666.17419	1483.52588	-162.59027	1613.33191	1358.36877	-156.77538	1612.91638	1488.10669	-157.36496	1458.245	1415.33252	-192.07912	1131.03198	1425.10217	-44.94253	1383.02942	1419.32178	-4.17167	1208.46155	1413.5376	-231.89815	1289.84619	1489.58411	-99.24621	1413.83679	1255.68701	-82.60937	1212.50562	1181.17859	-70.86238	1100.19666	1168.25342	-3.16368	965.75372	1150.19116	91.95825	880.78821	1194.98853	37.06338	853.44531	1159.69434	104.13976	793.20392	1158.89343	-98.24843	1414.83057	1578.47961	-162.83734	1223.71521	1663.63879	-170.05066	1101.66492	1676.93384	-176.59134	982.00195	1698.16309	-143.42455	831.39081	1674.78479	-196.64294	845.5647	1711.87866	-176.53319	763.04767	1717.21667	-15.72865	968.66394	1324.34473	-19.46541	979.0332	1542.84607	-173.69989	997.14508	1349.39685	-170.81146	998.65106	1517.47217	-85.53631	652.11945	1276.12866	-92.74596	488.84021	1304.39417	-152.22615	238.08949	1319.93176	-177.51678	69.79958	1370.2771	-221.23079	58.69744	1414.11975	-33.41831	39.91717	1380.18726	5.77849	653.98517	1609.61975	53.55265	537.73718	1588.77234	-44.11738	295.25998	1581.33594	-104.6728	119.40092	1537.70325	-141.03534	100.78872	1486.53528	30.24921	52.41133	1566.50366	-130.84445	1709.84045	1413.03369	NaN	NaN	NaN	NaN	NaN	NaN	NaN	NaN	NaN	NaN	NaN	NaN	NaN	NaN	NaN	NaN	NaN	NaN	NaN	NaN	NaN
121	1.2	-21.00594	1671.37061	1352.12158	-16.18689	1665.43127	1483.85608	-152.20343	1613.02368	1358.38098	-146.74338	1612.37476	1488.26062	-147.30402	1457.76648	1415.04663	-182.42947	1130.45947	1424.5542	-35.02387	1382.47009	1419.32996	5.58897	1207.77881	1413.18884	-222.21255	1289.18567	1488.70715	-88.89838	1413.578	1255.55164	-71.10013	1212.56665	1180.62109	-57.99211	1100.46057	1167.31458	12.74999	967.53668	1149.47559	109.84106	885.13171	1194.68762	55.63424	856.28687	1159.38135	124.17519	797.70837	1159.00061	-88.8475	1414.04565	1578.35071	-154.79179	1223.27795	1662.95178	-162.69266	1101.26721	1676.26318	-170.16914	981.65894	1697.52783	-136.69731	831.59937	1675.27026	-191.44279	845.362	1711.16211	-171.93988	762.6604	1716.73853	-6.26418	967.98413	1323.38062	-9.24798	978.55829	1542.1156	-164.67963	996.58545	1349.40613	-160.75941	998.12067	1517.54504	-79.00622	651.52466	1275.98938	-88.08371	488.21158	1304.21704	-150.25233	238.07513	1319.56665	-177.21523	70.01787	1370.32874	-221.04921	59.06446	1414.12122	-33.36102	39.78688	1380.203	16.84612	653.88336	1608.66821	64.95096	538.01508	1587.25061	-22.6266	291.18756	1581.09705	-73.69505	112.01399	1538.42505	-109.27326	91.58903	1487.33386	64.547	51.78417	1566.98279	-120.40002	1709.39893	1413.30933	NaN	NaN	NaN	NaN	NaN	NaN	NaN	NaN	NaN	NaN	NaN	NaN	NaN	NaN	NaN	NaN	NaN	NaN	NaN	NaN	NaN
122	1.21	-10.33383	1670.80859	1352.4624	-5.94003	1664.58228	1484.30969	-141.81348	1612.58911	1358.4187	-136.53062	1611.75916	1488.14917	-137.14246	1457.21899	1414.76904	-172.51418	1129.87598	1424.06091	-25.15923	1381.69482	1419.31177	15.33393	1206.96228	1412.84583	-212.59395	1288.38831	1487.9021	-78.38589	1413.21204	1255.46045	-59.47966	1212.50879	1180.08948	-45.3494	1100.55066	1166.43164	28.42508	969.28461	1148.84229	127.3746	889.41547	1194.5271	74.02375	859.12335	1159.31726	143.82927	802.30054	1158.91602	-79.39618	1413.1814	1578.25537	-146.68221	1222.69495	1662.32178	-155.20088	1100.74744	1675.63574	-163.66487	981.25958	1696.94116	-131.13651	830.83545	1674.95984	-186.1564	845.21149	1710.52515	-167.11302	762.34576	1716.28796	2.71673	967.07031	1322.56274	1.11672	978.01184	1541.4231	-155.6619	995.76678	1349.43848	-150.59758	997.49347	1517.62891	-72.42785	650.77313	1275.84656	-83.30238	487.53687	1304.03174	-148.05154	237.91502	1319.35828	-176.86472	70.20679	1370.43225	-220.79727	59.38745	1414.1322	-33.14316	39.65209	1380.18787	27.44477	653.41644	1607.77527	76.10797	537.79755	1585.54199	-0.98106	287.04337	1580.95618	-42.52847	105.22477	1539.0199	-77.4582	83.35646	1488.09155	98.56413	51.25917	1566.97998	-109.98833	1708.77539	1413.54224	NaN	NaN	NaN	NaN	NaN	NaN	NaN	NaN	NaN	NaN	NaN	NaN	NaN	NaN	NaN	NaN	NaN	NaN	NaN	NaN	NaN
123	1.22	0.12662	1670.04028	1352.89978	4.2561	1663.63721	1484.69629	-131.44279	1611.90295	1358.52161	-126.43888	1610.85144	1488.33008	-126.92997	1456.46619	1414.53467	-162.75818	1129.1925	1423.8031	-15.1307	1380.8717	1419.32117	25.08559	1206.04163	1412.49756	-202.81935	1287.56531	1487.1698	-67.98486	1412.65088	1255.41541	-47.88505	1212.2688	1179.81494	-32.73819	1100.52368	1165.60913	43.87136	970.84949	1148.34631	144.65195	893.68494	1194.46045	91.94469	861.8476	1159.25623	163.48056	806.91864	1159.12805	-69.84444	1412.20264	1578.16821	-138.47464	1222.12598	1661.66687	-147.63174	1100.20789	1675.0686	-156.93987	980.73053	1696.40234	-125.16914	830.10437	1674.78833	-180.30043	844.8147	1709.88171	-161.91641	761.93073	1716.01404	11.79307	966.19073	1321.63928	11.5359	977.17712	1540.64941	-146.40228	994.9082	1349.68494	-140.3461	996.67926	1517.76062	-65.82677	649.99066	1275.83765	-78.20308	486.77618	1303.98584	-145.70888	237.73447	1319.54138	-176.4762	70.43562	1370.56116	-220.60056	59.76773	1414.25598	-32.84277	39.74652	1379.80017	37.70656	652.60767	1607.00378	86.77977	537.26123	1584.21765	20.8386	282.93381	1580.90588	-11.17613	99.06081	1539.52759	-44.85882	75.7201	1488.85352	132.2545	50.87813	1566.44934	-99.59326	1708.02991	1413.81201	NaN	NaN	NaN	NaN	NaN	NaN	NaN	NaN	NaN	NaN	NaN	NaN	NaN	NaN	NaN	NaN	NaN	NaN	NaN	NaN	NaN
